<svg id="Group_169" data-name="Group 169" xmlns="http://www.w3.org/2000/svg" width="117.627" height="189.031" viewBox="0 0 117.627 189.031">
  <path id="Path_252" data-name="Path 252" d="M851.943,594.746c.058-.019.111-.021.168-.037-.056.016-.107.017-.163.036Z" transform="translate(-781.551 -418.726)" fill="none"/>
  <path id="Path_253" data-name="Path 253" d="M848.645,598.8v0a8.578,8.578,0,0,1,.337-.909h0A8.589,8.589,0,0,0,848.645,598.8Z" transform="translate(-782.624 -417.705)" fill="none"/>
  <path id="Path_254" data-name="Path 254" d="M852.462,594.628c.077-.005.145.009.217.011a1.806,1.806,0,0,0-.209-.011Z" transform="translate(-781.382 -418.752)" fill="none"/>
  <path id="Path_255" data-name="Path 255" d="M848.961,601.7a2.18,2.18,0,0,1-.213-.326A2.18,2.18,0,0,0,848.961,601.7Z" transform="translate(-782.59 -416.587)" fill="none"/>
  <path id="Path_256" data-name="Path 256" d="M848.527,600.861a2.985,2.985,0,0,0,.15.458A2.985,2.985,0,0,1,848.527,600.861Z" transform="translate(-782.662 -416.752)" fill="none"/>
  <path id="Path_257" data-name="Path 257" d="M848.408,600.254a5.712,5.712,0,0,1,.071-.88h0A5.681,5.681,0,0,0,848.408,600.254Z" transform="translate(-782.701 -417.229)" fill="none"/>
  <path id="Path_258" data-name="Path 258" d="M852.95,594.655a1.855,1.855,0,0,1,.217.079c-.07-.022-.13-.061-.2-.077Z" transform="translate(-781.223 -418.743)" fill="none"/>
  <path id="Path_259" data-name="Path 259" d="M849.706,596.666h0a8.539,8.539,0,0,1,.565-.678h0A8.7,8.7,0,0,0,849.706,596.666Z" transform="translate(-782.279 -418.315)" fill="none"/>
  <path id="Path_260" data-name="Path 260" d="M848.905,598.094v0a9.373,9.373,0,0,1,.456-.9v0A9.374,9.374,0,0,0,848.905,598.094Z" transform="translate(-782.54 -417.927)" fill="none"/>
  <path id="Path_261" data-name="Path 261" d="M849.259,597.307c.1-.181.225-.35.342-.523-.117.172-.237.341-.342.522Z" transform="translate(-782.424 -418.06)" fill="none"/>
  <path id="Path_262" data-name="Path 262" d="M848.48,599.474h0a7.2,7.2,0,0,1,.195-.84h0A7.217,7.217,0,0,0,848.48,599.474Z" transform="translate(-782.678 -417.466)" fill="none"/>
  <path id="Path_263" data-name="Path 263" d="M848.408,600.04a4.3,4.3,0,0,0,.081.844A4.3,4.3,0,0,1,848.408,600.04Z" transform="translate(-782.701 -417.015)" fill="none"/>
  <path id="Path_264" data-name="Path 264" d="M814.692,469.311V583.736l17.959,10.417V479.728Z" transform="translate(-793.673 -458.957)" fill="#e97b62"/>
  <path id="Path_265" data-name="Path 265" d="M850.631,471.964l-18.088-10.492-17.851,10.355,17.959,10.417Z" transform="translate(-793.673 -461.472)" fill="#fff"/>
  <path id="Path_266" data-name="Path 266" d="M846.222,499.649V469.415l-17.98,10.279V594.119l12.376-7.076V502.9Z" transform="translate(-789.264 -458.923)" fill="#412e88"/>
  <path id="Path_267" data-name="Path 267" d="M837.579,494.766v98.511l17.959,10.417V505.183Z" transform="translate(-786.225 -450.79)" fill="#e97b62"/>
  <path id="Path_268" data-name="Path 268" d="M855.538,507.7l17.98-10.28L855.43,486.927l-12.247,7.1-5.6,3.251Z" transform="translate(-786.225 -453.305)" fill="#fff"/>
  <path id="Path_269" data-name="Path 269" d="M869.108,531.526V494.87l-17.98,10.28v98.511l12.376-7.076V534.777Z" transform="translate(-781.816 -450.757)" fill="#412e88"/>
  <path id="Path_270" data-name="Path 270" d="M860.466,525.084v76.175l17.959,10.417V535.5Z" transform="translate(-778.777 -441.063)" fill="#e97b62"/>
  <path id="Path_271" data-name="Path 271" d="M878.425,538.016l17.98-10.28-18.088-10.492-12.247,7.1-5.6,3.251Z" transform="translate(-778.777 -443.579)" fill="#fff"/>
  <path id="Path_272" data-name="Path 272" d="M874.015,535.467v76.175L892,601.362V525.188Z" transform="translate(-774.368 -441.03)" fill="#412e88"/>
  <path id="Path_273" data-name="Path 273" d="M803.891,565.983a1.8,1.8,0,0,0-.195-.1,2.128,2.128,0,0,0-.2-.073,2.128,2.128,0,0,1,.2.073A1.8,1.8,0,0,1,803.891,565.983Z" transform="translate(-797.318 -427.996)" fill="#e97b62"/>
  <path id="Path_274" data-name="Path 274" d="M864.169,613.066a2.175,2.175,0,0,1-.213-.326,1.938,1.938,0,0,1-.143-.221,2.987,2.987,0,0,1-.15-.458c-.023-.083-.06-.152-.077-.24a4.3,4.3,0,0,1-.081-.844,5.7,5.7,0,0,1,.071-.878h0c.007-.045.016-.091.024-.136h0a7.211,7.211,0,0,1,.195-.837h0l.022-.074v0a8.61,8.61,0,0,1,.335-.906h0l.008-.016v0a9.359,9.359,0,0,1,.453-.893v0l.015-.024h0c.1-.181.225-.35.342-.522.084-.124.16-.252.249-.371h0a8.7,8.7,0,0,1,.562-.675h0a6.7,6.7,0,0,1,1.557-1.283,4.334,4.334,0,0,1,.844-.372h.005c.056-.018.107-.02.163-.036a3.124,3.124,0,0,1,.519-.107h.008a1.79,1.79,0,0,1,.209.011,2.283,2.283,0,0,1,.429.025l.015,0c.073.016.132.054.2.077a2,2,0,0,1,.339.124l-65.69-38.117,3.5,2.03h-.013c-.029,0-.061.007-.09.009l-.061.005c-.053.005-.1.008-.159.016a3.308,3.308,0,0,0-.365.078c-.05.015-.1.037-.158.054s-.1.032-.144.05-.122.037-.186.063a4.963,4.963,0,0,0-.579.287,6.346,6.346,0,0,0-.774.536c-.082.065-.159.14-.24.21-.121.1-.244.2-.36.316-.054.054-.106.114-.16.169l-.135.145c-.052.055-.106.107-.156.165-.115.131-.227.268-.335.408-.039.049-.076.1-.113.152-.02.025-.038.052-.058.078-.034.047-.072.094-.1.143-.083.118-.163.237-.241.358s-.145.231-.214.35l-.017.029-.016.028c-.056.1-.11.193-.162.291-.064.116-.122.234-.18.353s-.1.21-.144.316l-.011.022-.009.02c-.053.123-.1.247-.151.37s-.1.26-.14.391c-.021.063-.04.127-.058.19l-.027.083c-.014.049-.03.1-.044.145-.044.158-.083.316-.117.473-.02.094-.032.186-.049.281-.008.049-.017.1-.025.148s-.017.092-.024.139a6.4,6.4,0,0,0-.053.8,3.936,3.936,0,0,0,.327,1.65l62.289,36.145a1.944,1.944,0,0,1-.262-.217A2.036,2.036,0,0,1,864.169,613.066Z" transform="translate(-797.798 -427.952)" fill="#e97b62"/>
  <path id="Path_275" data-name="Path 275" d="M853.386,594.819l-.015-.009.005.005Z" transform="translate(-781.086 -418.693)" fill="#e97b62"/>
  <path id="Path_276" data-name="Path 276" d="M799.06,569.873c-.041.147-.077.295-.109.44-.019.089-.03.176-.045.263.015-.087.026-.174.045-.263C798.983,570.167,799.019,570.02,799.06,569.873Z" transform="translate(-798.811 -426.694)" fill="#e97b62"/>
  <path id="Path_277" data-name="Path 277" d="M798.917,570.405c-.008.046-.017.091-.024.137s-.017.087-.023.131c.005-.043.016-.087.023-.131S798.91,570.451,798.917,570.405Z" transform="translate(-798.822 -426.523)" fill="#e97b62"/>
  <path id="Path_278" data-name="Path 278" d="M802.451,565.951a4.441,4.441,0,0,0-.541.267,5.93,5.93,0,0,0-.722.5,5.93,5.93,0,0,1,.722-.5A4.441,4.441,0,0,1,802.451,565.951Z" transform="translate(-798.068 -427.952)" fill="#e97b62"/>
  <path id="Path_279" data-name="Path 279" d="M803.534,565.824c-.045-.012-.093-.021-.138-.032l-.032-.007.032.008C803.441,565.8,803.489,565.812,803.534,565.824Z" transform="translate(-797.36 -428.005)" fill="#e97b62"/>
  <path id="Path_280" data-name="Path 280" d="M803.106,574.915c.007-.046.017-.092.024-.139s.017-.1.025-.148c.017-.1.029-.188.049-.281.033-.157.073-.314.117-.473.013-.047.029-.1.044-.145l.026-.083c.019-.063.037-.127.058-.19.044-.131.09-.26.141-.391s.1-.247.151-.37l.009-.02.011-.022c.046-.106.094-.211.144-.316s.117-.237.18-.353c.052-.1.106-.194.162-.291l.016-.028.017-.029c.069-.119.141-.235.213-.35s.158-.24.241-.358c.033-.049.07-.1.1-.143.02-.026.038-.053.058-.078.037-.052.074-.1.113-.152.109-.14.22-.277.335-.408.05-.058.1-.11.156-.165l.135-.145c.054-.055.106-.115.16-.169.117-.114.24-.211.36-.316.081-.07.158-.145.24-.21a6.354,6.354,0,0,1,.774-.536,4.968,4.968,0,0,1,.579-.287c.064-.026.123-.042.185-.063s.1-.034.144-.05.108-.04.158-.054a3.306,3.306,0,0,1,.365-.078c.054-.008.106-.011.159-.016l.061-.005c.029,0,.061-.008.09-.009h.013l-3.5-2.03-.021-.012a1.763,1.763,0,0,0-.195-.1,2.07,2.07,0,0,0-.2-.073c-.045-.012-.093-.021-.138-.03l-.032-.008c-.016,0-.031-.008-.048-.011a2.239,2.239,0,0,0-.235-.028,2.346,2.346,0,0,0-.256,0c-.026,0-.056.005-.083.008l-.057.005c-.049.005-.1.008-.147.016a3.037,3.037,0,0,0-.341.071c-.048.013-.1.036-.147.05l-.135.046c-.057.021-.114.036-.172.061a4.44,4.44,0,0,0-.541.267,5.922,5.922,0,0,0-.722.5c-.077.062-.149.131-.224.2-.111.1-.228.188-.337.295-.05.05-.1.106-.148.158s-.085.089-.127.135-.1.1-.144.153c-.107.123-.212.251-.314.38-.036.048-.069.1-.1.143l-.054.073c-.032.045-.066.088-.1.133-.077.109-.151.221-.224.333s-.135.216-.2.326l-.016.028-.013.026c-.053.09-.1.18-.152.271-.058.108-.113.218-.167.329s-.091.2-.135.294l-.009.021-.009.018c-.05.115-.1.23-.142.346s-.09.242-.131.363c-.018.059-.036.119-.054.178l-.024.077c-.013.046-.029.091-.041.136-.041.147-.077.295-.109.44-.018.089-.03.176-.045.263-.008.046-.017.091-.024.137s-.017.087-.023.131a5.793,5.793,0,0,0-.049.748,3.108,3.108,0,0,0,.66,2.087,1.941,1.941,0,0,0,.469.384l3.417,1.983h0a3.934,3.934,0,0,1-.327-1.65A6.389,6.389,0,0,1,803.106,574.915Z" transform="translate(-798.834 -428.015)" fill="#fff"/>
  <path id="Path_281" data-name="Path 281" d="M860.829,602.71c-2.485-3.509-5.428-7.591-5.837-7.836l-.005-.005h0a2,2,0,0,0-.339-.124,1.854,1.854,0,0,0-.217-.079,2.3,2.3,0,0,0-.43-.025c-.073,0-.14-.016-.217-.011a3.144,3.144,0,0,0-.52.107c-.057.016-.11.018-.168.037a4.332,4.332,0,0,0-.844.372,6.7,6.7,0,0,0-1.557,1.283,8.476,8.476,0,0,0-.565.678c-.089.119-.166.247-.249.371-.117.173-.237.342-.342.523l-.014.024a9.373,9.373,0,0,0-.456.9l-.008.016a8.577,8.577,0,0,0-.337.909l-.023.074a7.186,7.186,0,0,0-.195.84c-.008.045-.017.091-.024.136a5.712,5.712,0,0,0-.071.88,4.3,4.3,0,0,0,.081.844c.017.089.054.157.077.24a3,3,0,0,0,.15.458,1.97,1.97,0,0,0,.143.221,2.173,2.173,0,0,0,.214.326,2.019,2.019,0,0,0,.2.165,1.923,1.923,0,0,0,.274.223c.664.378,13.4,3.207,14.723,3.5-.537-.119-2.823-.627-5.441-1.223C857.63,604.764,859.823,602.3,860.829,602.71Z" transform="translate(-782.701 -418.752)" fill="#fff"/>
  <path id="Path_282" data-name="Path 282" d="M859.789,603.613l.18.259Z" transform="translate(-778.997 -415.869)" fill="#fff"/>
  <path id="Path_283" data-name="Path 283" d="M860.324,604.383l.188.269Z" transform="translate(-778.823 -415.622)" fill="#fff"/>
  <path id="Path_284" data-name="Path 284" d="M858.342,601.547l.178.252Z" transform="translate(-779.468 -416.532)" fill="#fff"/>
  <path id="Path_285" data-name="Path 285" d="M858.884,602.319l.192.273Z" transform="translate(-779.292 -416.284)" fill="#fff"/>
  <path id="Path_286" data-name="Path 286" d="M860.126,604.1l.109.154Z" transform="translate(-778.888 -415.713)" fill="#fff"/>
  <path id="Path_287" data-name="Path 287" d="M859.4,603.052l.135.194Z" transform="translate(-779.125 -416.049)" fill="#fff"/>
  <path id="Path_288" data-name="Path 288" d="M861.729,605.561l-.154-.222-.109-.154-.266-.382-.18-.259-.384-.547-.135-.194-.488-.695-.192-.273-.541-.767-.178-.252q-.362-.515-.746-1.057h0c-1.006-.412-3.2,2.054-2,3.823,2.618.6,4.9,1.1,5.441,1.223l.119.026Z" transform="translate(-780.228 -416.799)" fill="#e97b62"/>
</svg>
