<svg xmlns="http://www.w3.org/2000/svg" width="287.283" height="336.04" viewBox="0 0 287.283 336.04">
  <g id="work-here" transform="translate(-87.467 1279.964)">
    <path id="Path_166" data-name="Path 166" d="M219.365-620.151l.1.07-.1-.071Z" transform="translate(-83.859 -419.499)" fill="none"/>
    <path id="Path_167" data-name="Path 167" d="M244.14-935.313l-.1-.065-.253-.169Z" transform="translate(-99.387 -218.975)" fill="none"/>
    <path id="Path_168" data-name="Path 168" d="M90.711-789.85c.077,6.179,2.258,13.029,6.38,20.272v-.031c-4.106-7.231-6.279-14.071-6.354-20.241Z" transform="translate(-2.062 -311.608)" fill="none"/>
    <path id="Path_169" data-name="Path 169" d="M219.365-952.606h0l.072.052Z" transform="translate(-83.859 -208.13)" fill="none"/>
    <path id="Path_170" data-name="Path 170" d="M254.9-928.262l-.131-.085-.149-.1Z" transform="translate(-106.273 -223.492)" fill="none"/>
    <path id="Path_171" data-name="Path 171" d="M118.985-717.3v.022c7.3,10.45,18.329,21.518,32.642,32.436v0C137.308-695.767,126.275-706.843,118.985-717.3Z" transform="translate(-20.039 -357.735)" fill="none"/>
    <path id="Path_172" data-name="Path 172" d="M282.924-911.018l-.269-.159-.018-.011Z" transform="translate(-124.086 -234.463)" fill="none"/>
    <path id="Path_173" data-name="Path 173" d="M277.482-914.246l-.063-.039-.034-.02Z" transform="translate(-120.747 -232.481)" fill="none"/>
    <path id="Path_174" data-name="Path 174" d="M266.015-921.236l-.113-.071-.083-.051Z" transform="translate(-113.394 -227.997)" fill="none"/>
    <path id="Path_175" data-name="Path 175" d="M260.266-924.839l-.054-.035-.271-.172Z" transform="translate(-109.656 -225.653)" fill="none"/>
    <path id="Path_176" data-name="Path 176" d="M271.4-917.926l-.231-.142-.091-.055Z" transform="translate(-116.734 -230.053)" fill="none"/>
    <path id="Path_177" data-name="Path 177" d="M779.442-828,810.781-846.1v-25.7l-31.339,18.094Z" transform="translate(-439.948 -259.505)" fill="#412e88"/>
    <path id="Path_178" data-name="Path 178" d="M118.985-969.572V-949.1c7.442,10.374,18.631,21.309,32.642,31.961v-20.624C137.632-948.333,126.545-959.162,118.985-969.572Z" transform="translate(-20.039 -197.343)" fill="#412e88"/>
    <path id="Path_179" data-name="Path 179" d="M219.365-874.285v20.645a292.216,292.216,0,0,0,26.052,16.877c5.8,3.35,11.719,6.52,17.7,9.5v-20.888c-6.385-3.155-12.7-6.521-18.877-10.089A287.94,287.94,0,0,1,219.365-874.285Z" transform="translate(-83.859 -257.925)" fill="#412e88"/>
    <path id="Path_180" data-name="Path 180" d="M350.252-849.385a340.372,340.372,0,0,0,50.931,19.762V-855.46a340.851,340.851,0,0,1-50.931-19.683Z" transform="translate(-167.075 -257.38)" fill="#412e88"/>
    <path id="Path_181" data-name="Path 181" d="M118.985-775.953v21.363c7.29,10.455,18.323,21.531,32.642,32.455v-22.009C137.632-754.714,126.545-765.543,118.985-775.953Z" transform="translate(-20.039 -320.443)" fill="#412e88"/>
    <path id="Path_182" data-name="Path 182" d="M779.442-559.917l31.339-18.094v-22.15l-31.339,18.094Z" transform="translate(-439.948 -432.209)" fill="#412e88"/>
    <path id="Path_183" data-name="Path 183" d="M118.985-840.492v20.473c7.442,10.374,18.631,21.309,32.642,31.961v-20.625C137.632-819.253,126.545-830.083,118.985-840.492Z" transform="translate(-20.039 -279.41)" fill="#412e88"/>
    <path id="Path_184" data-name="Path 184" d="M118.985-905.032v20.473c7.442,10.373,18.631,21.309,32.642,31.961v-20.625C137.632-883.793,126.545-894.622,118.985-905.032Z" transform="translate(-20.039 -238.377)" fill="#412e88"/>
    <path id="Path_185" data-name="Path 185" d="M779.442-625.813l31.339-18.094V-664.7l-31.339,18.094Z" transform="translate(-439.948 -391.176)" fill="#412e88"/>
    <path id="Path_186" data-name="Path 186" d="M219.365-680.666v22.04l.1.071.254.184q.748.545,1.507,1.089l.367.261q.71.507,1.428,1.014c.156.11.315.22.471.329q.674.472,1.353.943l.594.407c.42.288.839.577,1.263.864.238.162.479.323.719.484.389.262.776.524,1.169.785.288.192.581.384.871.576.348.23.695.46,1.046.69s.688.447,1.033.67c.307.2.611.4.919.6.4.259.81.517,1.216.775.255.162.507.324.763.486.493.311.992.622,1.49.933l.519.324q.907.562,1.826,1.122l.216.133q3.107,1.892,6.343,3.762c5.995,3.461,12.108,6.732,18.289,9.8v-22.2c-6.385-3.155-12.7-6.521-18.877-10.09A287.911,287.911,0,0,1,219.365-680.666Z" transform="translate(-83.859 -381.025)" fill="#412e88"/>
    <path id="Path_187" data-name="Path 187" d="M500.846-654.835A248.942,248.942,0,0,0,545.9-646.2v-21.233a251.187,251.187,0,0,1-45.054-8.522Z" transform="translate(-262.821 -384.021)" fill="#412e88"/>
    <path id="Path_188" data-name="Path 188" d="M500.846-719.375a248.941,248.941,0,0,0,45.054,8.635v-21.232a251.228,251.228,0,0,1-45.054-8.522Z" transform="translate(-262.821 -342.988)" fill="#412e88"/>
    <path id="Path_189" data-name="Path 189" d="M645.609-729.668c-3.327,0-6.769-.119-10.305-.35v21.237c19.434,1.284,35.812-.948,46.637-7.194l1.943-1.122v-20.794l-.767.443C673.973-732.168,660.989-729.668,645.609-729.668Z" transform="translate(-348.307 -344.643)" fill="#412e88"/>
    <path id="Path_190" data-name="Path 190" d="M645.609-665.128c-3.327,0-6.769-.119-10.305-.35v21.237c19.434,1.284,35.812-.948,46.637-7.195l1.943-1.121v-20.794l-.767.443C673.973-667.628,660.989-665.128,645.609-665.128Z" transform="translate(-348.307 -385.676)" fill="#412e88"/>
    <path id="Path_191" data-name="Path 191" d="M645.609-600.587c-3.327,0-6.769-.12-10.305-.35V-579.7c19.434,1.284,35.812-.947,46.637-7.194l1.943-1.122V-608.81l-.767.443C673.973-603.087,660.989-600.587,645.609-600.587Z" transform="translate(-348.307 -426.711)" fill="#412e88"/>
    <path id="Path_192" data-name="Path 192" d="M500.846-590.295a248.941,248.941,0,0,0,45.054,8.635v-21.233a251.182,251.182,0,0,1-45.054-8.522Z" transform="translate(-262.821 -425.055)" fill="#412e88"/>
    <path id="Path_193" data-name="Path 193" d="M500.846-792.158a248.94,248.94,0,0,0,45.054,8.635v-25.894A249.414,249.414,0,0,1,500.846-818Z" transform="translate(-262.821 -293.71)" fill="#412e88"/>
    <path id="Path_194" data-name="Path 194" d="M219.365-809.745V-789.1a292.351,292.351,0,0,0,26.052,16.877c5.8,3.35,11.719,6.52,17.7,9.5v-20.888c-6.385-3.155-12.7-6.521-18.877-10.09A287.852,287.852,0,0,1,219.365-809.745Z" transform="translate(-83.859 -298.959)" fill="#412e88"/>
    <path id="Path_195" data-name="Path 195" d="M635.3-807.79v25.9c19.434,1.284,35.812-.948,46.637-7.194l1.943-1.122v-25.7l-1.355.782C671.537-808.783,654.954-806.5,635.3-807.79Z" transform="translate(-348.307 -295.039)" fill="#412e88"/>
    <path id="Path_196" data-name="Path 196" d="M350.252-581.457a340.851,340.851,0,0,0,50.931,19.683V-584.1a341.2,341.2,0,0,1-50.931-19.565Z" transform="translate(-167.075 -429.981)" fill="#412e88"/>
    <path id="Path_197" data-name="Path 197" d="M500.846-524.537a249.392,249.392,0,0,0,45.054,8.583v-22.4a251.182,251.182,0,0,1-45.054-8.522Z" transform="translate(-262.821 -466.089)" fill="#412e88"/>
    <path id="Path_198" data-name="Path 198" d="M350.252-776.378a340.332,340.332,0,0,0,50.931,19.762v-21.1a341.2,341.2,0,0,1-50.931-19.565Z" transform="translate(-167.075 -306.881)" fill="#412e88"/>
    <path id="Path_199" data-name="Path 199" d="M350.252-647.3a340.418,340.418,0,0,0,50.931,19.762v-21.1a341.224,341.224,0,0,1-50.931-19.565Z" transform="translate(-167.075 -388.948)" fill="#412e88"/>
    <path id="Path_200" data-name="Path 200" d="M350.252-711.838a340.365,340.365,0,0,0,50.931,19.762v-21.1a341.284,341.284,0,0,1-50.931-19.565Z" transform="translate(-167.075 -347.914)" fill="#412e88"/>
    <path id="Path_201" data-name="Path 201" d="M219.365-745.206v20.645a292.256,292.256,0,0,0,26.052,16.877c5.8,3.35,11.719,6.52,17.7,9.5v-20.888c-6.385-3.155-12.7-6.521-18.877-10.09A287.882,287.882,0,0,1,219.365-745.206Z" transform="translate(-83.859 -339.992)" fill="#412e88"/>
    <path id="Path_202" data-name="Path 202" d="M97.088-1010.923a55.414,55.414,0,0,1-6.382-14.447v15.17c.052,6.011,2.281,12.647,6.382,19.63Z" transform="translate(-2.059 -161.867)" fill="#412e88"/>
    <path id="Path_203" data-name="Path 203" d="M97.088-1101.89q-.557-.979-1.065-1.946l-.078-.149q-.593-1.135-1.12-2.255l-.064-.138q-.259-.553-.5-1.1h0q-.252-.571-.485-1.136l-.041-.1q-.215-.522-.414-1.04l-.034-.089q-.215-.562-.413-1.119l-.005-.016q-.188-.532-.359-1.059l-.042-.129q-.347-1.078-.628-2.138l-.035-.134q-.276-1.061-.483-2.1c-.008-.039-.015-.077-.022-.115q-.1-.493-.178-.982c0-.019-.007-.038-.009-.057q-.086-.524-.153-1.044c0-.021-.005-.042-.008-.063q-.061-.48-.107-.955c0-.038-.008-.076-.011-.114q-.093-1-.117-1.986c0-.045,0-.09,0-.134l0-.1v26.89c.052,6.012,2.281,12.647,6.382,19.63Z" transform="translate(-2.059 -100.375)" fill="#412e88"/>
    <path id="Path_204" data-name="Path 204" d="M97.088-946.383a55.409,55.409,0,0,1-6.382-14.447v15.169c.052,6.012,2.281,12.647,6.382,19.63Z" transform="translate(-2.059 -202.901)" fill="#412e88"/>
    <path id="Path_205" data-name="Path 205" d="M242.938-937.21l-.241-.141-.287-.17q-.777-.458-1.546-.917l-.269-.16-.1-.059q-.912-.546-1.812-1.094l-.164-.1-.322-.2q-.716-.438-1.426-.876l-.292-.18-.2-.122q-.88-.546-1.749-1.094l-.067-.043-.326-.206q-.714-.452-1.421-.905l-.237-.151-.28-.181q-.887-.572-1.764-1.144l-.126-.083q-.782-.512-1.554-1.027l-.149-.1-.351-.235q-.717-.479-1.427-.96l-.094-.063-.084-.057-.115-.078q-.823-.559-1.634-1.12h0l-.06-.042-.393-.272q-.668-.463-1.328-.927l-.085-.059,0,0-.284-.2c-.252-.178-.5-.357-.751-.535l-.6-.423-.291-.207-.315-.227-.428-.31-.55-.4-.383-.277-.072-.052v25.664a292.392,292.392,0,0,0,26.052,16.877c5.8,3.35,11.719,6.52,17.7,9.5V-926.3c-6.181-3.071-12.294-6.342-18.289-9.8Q243.877-936.658,242.938-937.21Z" transform="translate(-83.859 -208.13)" fill="#412e88"/>
    <path id="Path_206" data-name="Path 206" d="M146.877-1020.973q-.741-.6-1.468-1.2l-.269-.222q-.624-.515-1.239-1.03l-.242-.2q-.712-.6-1.412-1.2l-.17-.147q-.619-.532-1.227-1.063l-.269-.235q-1.366-1.2-2.677-2.395l-.258-.236q-.645-.59-1.277-1.18l-.005,0q-.651-.608-1.286-1.216l-.22-.211q-.563-.539-1.115-1.078l-.139-.135q-.618-.606-1.222-1.211l-.15-.151q-.538-.54-1.063-1.078l-.179-.184q-.592-.608-1.17-1.216l-.03-.032q-.55-.579-1.085-1.157l-.188-.2q-1.107-1.2-2.156-2.39l-.169-.193q-.5-.571-.987-1.141l-.038-.044q-.517-.606-1.019-1.211l-.123-.149q-.451-.545-.889-1.089l-.107-.132q-.486-.6-.956-1.206l-.05-.064q-.438-.562-.861-1.121l-.125-.165q-.892-1.182-1.722-2.355l-.119-.169c-.07-.1-.141-.2-.209-.3v26.144c7.442,10.373,18.631,21.309,32.642,31.96v-25.672c-.312-.239-.621-.477-.93-.715l-.182-.14q-.6-.464-1.192-.928l-.193-.151-.432-.338-.33-.262c-.166-.131-.329-.262-.493-.393l-.073-.059c-.259-.206-.518-.412-.774-.618Z" transform="translate(-20.039 -146.411)" fill="#412e88"/>
    <path id="Path_207" data-name="Path 207" d="M90.73-816.49c.075,6.171,2.248,13.01,6.354,20.241V-817.3A55.4,55.4,0,0,1,90.7-831.751v14.239h.015c0,.067-.013.131-.015.2v.031c0,.262,0,.527,0,.792Z" transform="translate(-2.055 -284.968)" fill="#412e88"/>
    <path id="Path_208" data-name="Path 208" d="M779.442-690.353l31.339-18.094v-20.794l-31.339,18.094Z" transform="translate(-439.948 -350.142)" fill="#412e88"/>
    <path id="Path_209" data-name="Path 209" d="M97.088-881.843a55.412,55.412,0,0,1-6.382-14.447v12.773c0,.01,0,.02,0,.031v2.365c.052,6.012,2.281,12.648,6.382,19.63Z" transform="translate(-2.059 -243.935)" fill="#412e88"/>
    <path id="Path_210" data-name="Path 210" d="M645.609-536.048c-3.327,0-6.769-.119-10.305-.35V-514c19.65,1.285,36.233-.993,47.224-7.339l1.355-.783V-544.27l-.767.443C673.973-538.547,660.989-536.048,645.609-536.048Z" transform="translate(-348.307 -467.744)" fill="#412e88"/>
    <path id="Path_211" data-name="Path 211" d="M779.442-754.893l31.339-18.094V-793.78l-31.339,18.094Z" transform="translate(-439.948 -309.109)" fill="#412e88"/>
    <path id="Path_212" data-name="Path 212" d="M90.706-792.655v.2c0-.068.013-.132.015-.2Z" transform="translate(-2.059 -309.824)" fill="#757575"/>
    <path id="Path_213" data-name="Path 213" d="M246.842-933.523q.876.573,1.764,1.144l.149.1q-1.821-1.172-3.593-2.35.773.514,1.554,1.027Z" transform="translate(-100.26 -219.557)" fill="#a8a8a8"/>
    <path id="Path_214" data-name="Path 214" d="M241.552-937.054q-.846-.564-1.68-1.129.709.48,1.427.96Z" transform="translate(-96.897 -217.3)" fill="#a8a8a8"/>
    <path id="Path_215" data-name="Path 215" d="M257.73-926.454q-.852-.538-1.693-1.077.707.453,1.421.905Z" transform="translate(-107.175 -224.072)" fill="#a8a8a8"/>
    <path id="Path_216" data-name="Path 216" d="M236.33-940.6l.084.057q-.924-.627-1.834-1.255.812.56,1.634,1.12Z" transform="translate(-93.532 -214.999)" fill="#a8a8a8"/>
    <path id="Path_217" data-name="Path 217" d="M199.13-968.015l.432.338q-.633-.5-1.256-.993c.165.131.327.262.493.393Z" transform="translate(-70.471 -197.916)" fill="#a8a8a8"/>
    <path id="Path_218" data-name="Path 218" d="M90.711-1121.995q.023.982.117,1.986c0,.038.007.076.011.114q.046.475.107.955c0,.021.005.042.008.063q.067.52.153,1.044c0,.019.007.038.009.057q.081.488.178.982c.007.039.015.077.022.116q.207,1.041.483,2.1l.035.134q.28,1.06.628,2.138l.042.129q.172.527.359,1.059l.005.016q.2.557.413,1.119l.034.089q.2.518.414,1.04l.041.1q.234.566.485,1.136h0q.243.549.5,1.1l.064.138q.527,1.12,1.12,2.255l.078.149q.51.968,1.065,1.946,1.733,3.043,3.918,6.173c.069.1.14.2.209.3l.119.169q.83,1.172,1.722,2.355l.125.165q.423.559.861,1.12l.05.064q.47.6.956,1.206l.107.132q.438.544.889,1.089l.123.149q.5.6,1.019,1.211l.038.044q.486.569.987,1.14l.169.193q1.048,1.192,2.156,2.391l.188.2q.536.577,1.085,1.157l.03.032q.577.607,1.17,1.216l.179.184q.526.539,1.063,1.078l.15.152q.6.6,1.222,1.211l.139.135q.551.539,1.114,1.078l.22.211q.636.608,1.286,1.216l.005,0q.631.59,1.277,1.18l.257.236q1.311,1.2,2.677,2.395l.269.235q.609.531,1.227,1.063l.17.147q.7.6,1.412,1.2l.242.2q.615.515,1.239,1.03l.269.222q.727.6,1.468,1.2l.15.121c.256.206.516.412.774.618-24.958-19.915-38.9-40.1-39.089-55.9h-.028c0,.026,0,.052,0,.079l0,.1C90.709-1122.084,90.71-1122.04,90.711-1121.995Z" transform="translate(-2.059 -100.237)" fill="#a8a8a8"/>
    <path id="Path_219" data-name="Path 219" d="M227.633-946.666l0,0c-.349-.246-.694-.492-1.04-.738.251.178.5.357.751.535Z" transform="translate(-88.457 -211.44)" fill="#a8a8a8"/>
    <path id="Path_220" data-name="Path 220" d="M219.256-952.693q-.391-.284-.778-.568l.323.239.072.052Z" transform="translate(-83.295 -207.713)" fill="#a8a8a8"/>
    <path id="Path_221" data-name="Path 221" d="M222.866-950.068l.291.207q-.52-.372-1.034-.744l.428.31Z" transform="translate(-85.612 -209.401)" fill="#a8a8a8"/>
    <path id="Path_222" data-name="Path 222" d="M207.237-961.692q-.594-.452-1.181-.905c.309.238.617.477.93.715Z" transform="translate(-75.397 -201.778)" fill="#a8a8a8"/>
    <path id="Path_223" data-name="Path 223" d="M231.406-944.013l.06.042q-.9-.62-1.781-1.241.66.464,1.328.927Z" transform="translate(-90.42 -212.831)" fill="#a8a8a8"/>
    <path id="Path_224" data-name="Path 224" d="M268.676-919.6q-.762-.465-1.517-.932.71.439,1.426.876Z" transform="translate(-114.246 -228.523)" fill="#a8a8a8"/>
    <path id="Path_225" data-name="Path 225" d="M279.955-912.778q-.786-.463-1.564-.928.769.459,1.546.917Z" transform="translate(-121.387 -232.862)" fill="#a8a8a8"/>
    <path id="Path_226" data-name="Path 226" d="M262.849-923.217q-.921-.572-1.831-1.145.869.548,1.749,1.094Z" transform="translate(-110.341 -226.087)" fill="#a8a8a8"/>
    <path id="Path_227" data-name="Path 227" d="M274.255-916.195q-.929-.556-1.847-1.114.9.548,1.812,1.094Z" transform="translate(-117.583 -230.571)" fill="#a8a8a8"/>
    <path id="Path_228" data-name="Path 228" d="M90.706-1158.881v.185c0-.062,0-.123.006-.185Z" transform="translate(-2.059 -76.983)" fill="#757575"/>
    <path id="Path_229" data-name="Path 229" d="M142.488-1279.964l-40.53,23.4c-8.8,5.081-13.087,12.229-13.305,20.7,0,.062,0,.123-.006.185-.005.3,0,.609,0,.915v11.4c0,.01,0,.021,0,.03v.793h.028c.191,15.8,14.13,35.982,39.089,55.9l.073.059q.623.5,1.256.993l.193.151q.592.464,1.192.928l.182.14q.587.452,1.181.905l-.251-.19v25.672c-14.011-10.652-25.2-21.587-32.642-31.96v-26.144q-2.184-3.127-3.918-6.173v26.321c-4.1-6.983-6.33-13.618-6.382-19.63,0-.072,0-.145,0-.216,0-1.943,0-7.687,0-7.687a24.731,24.731,0,0,0-1.173,7.657,33.753,33.753,0,0,0,1.18,8.583,55.412,55.412,0,0,0,6.382,14.447v20.352c-4.1-6.982-6.33-13.618-6.382-19.63,0-.072,0-.145,0-.216,0-1.943,0-7.687,0-7.687a24.734,24.734,0,0,0-1.173,7.657,33.749,33.749,0,0,0,1.18,8.583,55.407,55.407,0,0,0,6.382,14.447v20.352c-4.1-6.983-6.33-13.618-6.382-19.63,0-.072,0-.145,0-.216,0-1.943,0-7.687,0-7.687a24.735,24.735,0,0,0-1.173,7.657,33.753,33.753,0,0,0,1.18,8.583,55.413,55.413,0,0,0,6.382,14.447v20.352c-4.1-6.982-6.33-13.618-6.382-19.63,0-.072,0-.145,0-.216,0-1.942,0-7.687,0-7.687a24.734,24.734,0,0,0-1.173,7.657,33.748,33.748,0,0,0,1.18,8.583,55.4,55.4,0,0,0,6.382,14.447v21.086c-4.121-7.243-6.3-14.093-6.38-20.272,0-.265-.006-.53,0-.792v12.269c0,.01,0,.02,0,.031v25.963h.028c.24,19.834,22.147,46.578,60.324,71.026l.1-1.966V-1021l10.789,6.229,10.789,6.229v26.076l-.1,2.112c62.092,33.127,133.662,46.057,163.648,28.744l40.529-23.4v-170.855Zm-10.9,237.386v0c-14.314-10.918-25.345-21.987-32.642-32.436V-1096.4c7.56,10.41,18.647,21.239,32.642,31.809Zm0-24.891c-14.011-10.651-25.2-21.587-32.642-31.96V-1119.9c7.56,10.409,18.647,21.239,32.642,31.809Zm0-23.506c-14.011-10.652-25.2-21.587-32.642-31.961v-20.473c7.56,10.41,18.647,21.239,32.642,31.809Zm0-23.507c-14.011-10.652-25.2-21.587-32.642-31.96v-20.473c7.56,10.41,18.647,21.239,32.642,31.809ZM96.627-1231.276c.823-6.206,4.349-11.448,10.93-15.256l36.623-21.132,214.637,123.9-31.546,18.218c-28.489,16.454-103.639-.259-161.582-33.708C125.187-1182.642,98.977-1210.826,96.627-1231.276Zm82.633,217.926c-6.181-3.071-12.294-6.342-18.289-9.8q-3.236-1.868-6.343-3.762l-.216-.133q-.918-.56-1.826-1.122l-.519-.324c-.5-.311-1-.621-1.49-.933-.256-.162-.508-.324-.763-.486-.406-.258-.814-.516-1.216-.775-.308-.2-.613-.4-.919-.6-.345-.223-.691-.446-1.033-.67s-.7-.46-1.046-.69c-.29-.192-.583-.384-.871-.576-.393-.261-.78-.523-1.169-.785-.24-.161-.481-.322-.719-.484-.424-.287-.844-.576-1.263-.864l-.594-.407q-.681-.471-1.353-.943c-.157-.11-.315-.219-.471-.329q-.72-.506-1.428-1.014l-.367-.261q-.759-.544-1.507-1.089l-.254-.184-.1-.07h0v-22.04a287.911,287.911,0,0,0,24.877,16.05c6.182,3.569,12.492,6.935,18.877,10.09Zm0-24.82c-5.982-2.985-11.9-6.154-17.7-9.5a292.266,292.266,0,0,1-26.052-16.877V-1085.2a287.882,287.882,0,0,0,24.877,16.05c6.182,3.569,12.492,6.935,18.877,10.09Zm0-23.506c-5.982-2.985-11.9-6.155-17.7-9.505a292.292,292.292,0,0,1-26.052-16.876V-1108.7a287.823,287.823,0,0,0,24.877,16.049c6.182,3.569,12.492,6.935,18.877,10.09Zm0-23.506c-5.982-2.985-11.9-6.154-17.7-9.505a292.211,292.211,0,0,1-26.052-16.877v-20.645a287.969,287.969,0,0,0,24.877,16.05c6.182,3.569,12.492,6.934,18.877,10.09Zm0-23.506c-5.982-2.985-11.9-6.154-17.7-9.5a292.4,292.4,0,0,1-26.052-16.877v-25.664h0l-.323-.239q.388.284.778.568l.55.4q.515.373,1.034.744l.6.423c.346.246.691.492,1.04.738l.085.059q.884.621,1.781,1.241h0q.91.628,1.834,1.255l.094.063q.834.565,1.68,1.129l.1.065.149.1q1.771,1.178,3.593,2.35l.131.085.237.151q.841.539,1.693,1.077l.054.035.067.043q.909.573,1.831,1.145l.113.071.292.18q.754.467,1.517.932l.231.142.164.1q.918.558,1.847,1.114l.063.039.269.159q.778.465,1.564.928l.269.159.241.141q.941.552,1.892,1.1c5.995,3.461,12.108,6.732,18.289,9.8Zm54.848,116.935a340.837,340.837,0,0,1-50.931-19.683v-22.209a341.21,341.21,0,0,0,50.931,19.565Zm0-24.729a340.431,340.431,0,0,1-50.931-19.762v-20.907a341.243,341.243,0,0,0,50.931,19.565Zm0-23.506a340.38,340.38,0,0,1-50.931-19.762v-20.907a341.3,341.3,0,0,0,50.931,19.565Zm0-23.506a340.314,340.314,0,0,1-50.931-19.762v-20.907a341.2,341.2,0,0,0,50.931,19.565Zm0-23.506a340.38,340.38,0,0,1-50.931-19.762v-25.758a340.825,340.825,0,0,0,50.931,19.683Zm48.971,104.96a249.393,249.393,0,0,1-45.054-8.583v-22.337a251.183,251.183,0,0,0,45.054,8.522Zm0-24.672a248.946,248.946,0,0,1-45.054-8.635v-21.119a251.177,251.177,0,0,0,45.054,8.522Zm0-23.506a248.93,248.93,0,0,1-45.054-8.635v-21.119a251.177,251.177,0,0,0,45.054,8.522Zm0-23.506a248.942,248.942,0,0,1-45.054-8.636v-21.119a251.212,251.212,0,0,0,45.054,8.522Zm0-23.506a248.951,248.951,0,0,1-45.054-8.635v-25.842a249.415,249.415,0,0,0,45.054,8.583Zm52.5,87.368-1.355.783c-10.992,6.346-27.574,8.624-47.224,7.339v-22.4c3.537.231,6.978.35,10.305.35,15.38,0,28.363-2.5,37.507-7.779l.767-.443Zm0-24.862-1.943,1.122c-10.824,6.247-27.2,8.479-46.637,7.194v-21.238c3.537.231,6.978.35,10.305.35,15.38,0,28.363-2.5,37.507-7.779l.767-.443Zm0-23.506-1.943,1.121c-10.824,6.247-27.2,8.479-46.637,7.195v-21.237c3.537.231,6.978.35,10.305.35,15.38,0,28.363-2.5,37.507-7.78l.767-.443Zm0-23.506-1.943,1.122c-10.824,6.247-27.2,8.478-46.637,7.194v-21.237c3.537.231,6.978.35,10.305.35,15.38,0,28.363-2.5,37.507-7.78l.767-.443Zm0-23.506-1.943,1.122c-10.824,6.247-27.2,8.478-46.637,7.194v-25.9c19.65,1.285,36.233-.993,47.224-7.339l1.355-.782Zm35.257,75.026-31.339,18.094v-22.15l31.339-18.094Zm0-24.862-31.339,18.094v-20.794l31.339-18.094Zm0-23.506L339.494-1040.5v-20.794l31.339-18.094Zm0-23.507L339.494-1064V-1084.8l31.339-18.094Zm0-23.506-31.339,18.094v-25.7l31.339-18.093Z" fill="#fff"/>
    <path id="Path_230" data-name="Path 230" d="M343.26-1104.074l31.546-18.218-214.637-123.9-36.623,21.133c-6.581,3.808-10.107,9.05-10.93,15.256,2.351,20.45,28.56,48.634,69.061,72.023C239.621-1104.333,314.771-1087.62,343.26-1104.074Z" transform="translate(-15.989 -21.471)" fill="#412e88"/>
    <path id="Path_231" data-name="Path 231" d="M285.9-480.485l10.938,6.315-10.79-6.23Z" transform="translate(-126.159 -508.298)" fill="#fff"/>
    <path id="Path_232" data-name="Path 232" d="M267.16-491.3l-10.48-6.051,10.48,6.051Z" transform="translate(-107.584 -497.573)" fill="#fff"/>
    <path id="Path_233" data-name="Path 233" d="M267.16-536.822l.162.093.148.085,10.79,6.23V-556.49l-10.79-6.23-10.789-6.229v26.076l10.48,6.05Z" transform="translate(-107.584 -452.054)" fill="#412e88"/>
    <path id="Path_234" data-name="Path 234" d="M267.15-491.21l-.162-.093-10.48-6.051-.1,1.966q5.744,3.678,11.972,7.278,4.755,2.745,9.6,5.327l.1-2.112Z" transform="translate(-107.412 -497.573)" fill="#412e88"/>
  </g>
</svg>
