<svg id="footer-small-logo" xmlns="http://www.w3.org/2000/svg" width="30" height="42.943" viewBox="0 0 30 42.943">
  <path id="Path_308" data-name="Path 308" d="M528.62,794.232a9.579,9.579,0,1,1-9.618,9.58,9.58,9.58,0,0,1,9.618-9.58Zm-15-4.746v14.325a14.966,14.966,0,1,0,5.054-11.186,6,6,0,0,0-5.054-3.139Z" transform="translate(-513.62 -775.808)" fill="#e97b62" fill-rule="evenodd"/>
  <path id="Path_309" data-name="Path 309" d="M521.895,742.111a9.438,9.438,0,0,0,2.891-8.053A10.025,10.025,0,0,0,513.842,745a9.437,9.437,0,0,0,8.052-2.89Z" transform="translate(-513.709 -733.952)" fill="#fff"/>
</svg>
