<svg xmlns="http://www.w3.org/2000/svg" width="153.929" height="192.309" viewBox="0 0 153.929 192.309">
  <g id="Group_161" data-name="Group 161" transform="translate(0)">
    <path id="Path_66" data-name="Path 66" d="M3744.708,7067.957h0a12.272,12.272,0,0,1-1.423-.949A12.272,12.272,0,0,0,3744.708,7067.957Z" transform="translate(-3740.262 -6911.968)" fill="#77767e"/>
    <path id="Path_67" data-name="Path 67" d="M3785.414,7046.165l-35.9-20.655h0l35.9,20.655c5.886,3.386,15.4,3.386,21.252,0l87.968-50.945-87.968,50.941C3800.816,7049.55,3791.3,7049.55,3785.414,7046.165Z" transform="translate(-3745.082 -6856.396)" fill="#77767e"/>
    <path id="Path_68" data-name="Path 68" d="M4389.737,6972.708h0c2.908-1.682,4.363-3.883,4.368-6.09l0-.474,0,.474C4394.1,6968.825,4392.646,6971.026,4389.737,6972.708Z" transform="translate(-4240.186 -6833.888)" fill="#77767e"/>
    <path id="Path_69" data-name="Path 69" d="M3729.95,7101.982h0c-.005,2.092,1.295,4.194,3.9,5.851C3731.245,7106.177,3729.945,7104.075,3729.95,7101.982Z" transform="translate(-3729.95 -6939.042)" fill="#77767e"/>
    <path id="Path_70" data-name="Path 70" d="M3729.963,7043.885h0a.075.075,0,0,1,0-.021l-.01,12.6.01-12.6Z" transform="translate(-3729.953 -6894.051)" fill="#77767e"/>
    <path id="Path_71" data-name="Path 71" d="M3909.348,7163.354a15.006,15.006,0,0,1-1.412-.715A15.006,15.006,0,0,0,3909.348,7163.354Z" transform="translate(-3867.593 -6985.999)" fill="#77767e"/>
    <path id="Path_72" data-name="Path 72" d="M4409.014,6910.95h0v0Z" transform="translate(-4255.092 -6791.161)" fill="#77767e"/>
    <path id="Path_73" data-name="Path 73" d="M3744.735,7017.555c.319-.228.66-.449,1.027-.661C3745.4,7017.106,3745.054,7017.327,3744.735,7017.555Z" transform="translate(-3741.384 -6873.174)" fill="#77767e"/>
    <path id="Path_74" data-name="Path 74" d="M3883.871,6910.319c0,.068,0,.138-.009.208s-.016.137-.024.206-.015.139-.027.207-.027.135-.041.207-.026.135-.042.207-.039.132-.058.2-.038.142-.059.209-.051.131-.074.2-.051.141-.08.211-.058.125-.087.188-.065.144-.1.215-.066.12-.1.178c-.042.075-.08.148-.124.222-.033.053-.071.108-.106.165-.05.077-.1.154-.15.228-.036.051-.073.1-.111.146-.058.082-.115.16-.181.242-.032.041-.071.081-.105.123-.071.088-.142.171-.218.258-.028.029-.062.06-.091.094-.088.092-.175.188-.269.278-.017.017-.038.033-.057.051a11.5,11.5,0,0,1-2.244,1.664l-87.967,50.946a22.483,22.483,0,0,1-12.449,2.474c-.519-.039-1.036-.089-1.547-.157a21.985,21.985,0,0,1-4.664-1.125c-.161-.058-.32-.118-.478-.18-.237-.1-.47-.193-.7-.295-.49-.221-.964-.458-1.413-.717l-35.9-20.654h0a12.494,12.494,0,0,1-1.421-.947l-.08-.059c-.1-.081-.2-.167-.3-.249-.043-.038-.089-.071-.132-.107-.085-.077-.167-.156-.249-.231-.05-.048-.1-.092-.147-.138-.075-.072-.144-.146-.213-.216-.051-.054-.1-.109-.153-.159-.063-.067-.119-.136-.179-.208s-.1-.115-.15-.175-.1-.137-.154-.2-.1-.124-.14-.187-.087-.133-.132-.2-.089-.129-.128-.2-.076-.13-.113-.2-.079-.133-.114-.2-.062-.133-.093-.2-.068-.135-.1-.205-.05-.134-.075-.2-.057-.14-.081-.211-.038-.132-.059-.2-.044-.144-.062-.217-.027-.131-.042-.2-.033-.146-.046-.217-.017-.132-.025-.2-.021-.148-.027-.223-.007-.129-.01-.193-.007-.152-.009-.223v-.02l-.012,12.6v.522c-.005,2.095,1.295,4.191,3.9,5.851.175.111.354.218.54.327h0l35.9,20.654c5.885,3.384,15.4,3.384,21.251,0l87.967-50.944h0c2.907-1.685,4.361-3.886,4.368-6.093v-.473l.01-12.653c0,.061-.006.122-.008.184Z" transform="translate(-3729.95 -6790.529)" fill="#412e88"/>
    <path id="Path_75" data-name="Path 75" d="M4409.05,6910.129Z" transform="translate(-4255.121 -6790.523)" fill="#e97b62"/>
    <path id="Path_76" data-name="Path 76" d="M3730.01,6839.933c0,.063,0,.129.01.194s.018.147.027.223.014.127.025.194.031.145.046.221.026.127.042.192.042.146.063.22.036.128.059.195.053.143.08.215.048.131.076.2.064.138.1.209.06.131.094.2.076.137.114.2.072.132.111.2.086.13.128.195.086.133.132.2.094.125.14.188.1.135.156.2.1.117.149.176.117.139.18.208c.049.052.1.1.152.155.069.074.138.145.212.218.046.048.1.093.148.138.082.076.163.155.25.231l.131.109c.1.083.2.166.3.248l.079.059a12.319,12.319,0,0,0,1.424.947l35.9,20.653c.451.259.924.5,1.414.717.23.1.464.2.7.294.157.066.316.125.478.184a22.2,22.2,0,0,0,4.663,1.123c.511.07,1.027.119,1.548.157a22.468,22.468,0,0,0,12.448-2.474l87.969-50.944a11.548,11.548,0,0,0,2.244-1.665c.019-.017.038-.033.057-.053.093-.089.181-.184.269-.276.03-.032.061-.064.09-.1.076-.082.147-.167.218-.253.034-.042.074-.083.107-.125.064-.08.121-.159.18-.241.037-.047.074-.1.109-.146.054-.075.1-.151.149-.228.037-.053.074-.111.107-.165.046-.072.084-.149.125-.222s.067-.119.1-.179.068-.142.1-.216l.086-.185c.03-.07.054-.142.08-.213s.051-.13.073-.194.041-.141.061-.208.042-.137.059-.2.029-.139.042-.208.031-.139.042-.205.019-.139.027-.208.019-.136.024-.207.007-.138.01-.207h0c0-.14,0-.278,0-.417,0,0,0-.011,0-.015-.006-.139-.018-.273-.036-.413,0-.005,0-.015,0-.022-.018-.134-.04-.267-.069-.4l-.008-.032c-.027-.13-.061-.26-.1-.388,0-.014-.009-.03-.013-.046-.038-.123-.081-.245-.128-.368-.007-.02-.015-.039-.024-.06-.046-.117-.1-.234-.153-.348-.011-.026-.023-.052-.034-.074-.055-.113-.115-.222-.176-.331-.018-.028-.033-.057-.05-.086-.061-.1-.128-.208-.2-.312-.021-.032-.042-.066-.064-.1-.067-.1-.14-.195-.212-.29-.029-.039-.056-.076-.085-.109-.073-.094-.15-.186-.227-.276l-.106-.122c-.077-.085-.159-.169-.241-.255-.044-.043-.084-.087-.129-.132-.081-.081-.168-.159-.253-.238-.049-.044-.1-.092-.151-.136-.085-.076-.178-.151-.267-.224-.058-.047-.112-.1-.171-.14-.094-.076-.191-.146-.288-.216-.062-.047-.122-.094-.185-.14-.108-.076-.22-.148-.332-.223-.06-.038-.116-.08-.178-.118-.174-.112-.357-.222-.542-.331l-35.9-20.652c-5.52-3.176-14.226-3.374-20.114-.594-.392.185-.771.384-1.138.6l-17.1,9.9a44.163,44.163,0,0,1-.144,5.513l19.689-11.355,46.93,26.922-81.4,46.937-46.93-26.921,53.053-30.59a30.416,30.416,0,0,0,1.073-6.031l-63.132,36.563q-.55.319-1.027.658c-.014.009-.026.021-.04.029-.145.1-.287.211-.423.316-.026.022-.05.044-.076.064-.12.1-.239.195-.351.291-.038.035-.073.07-.112.1-.095.087-.191.175-.279.26-.052.051-.1.1-.149.154-.07.074-.143.145-.21.22s-.112.13-.168.2-.107.122-.156.185c-.065.079-.125.162-.185.246-.035.047-.072.093-.1.139-.068.1-.129.194-.19.29-.021.035-.045.068-.066.1-.066.112-.126.223-.186.335l-.036.063c-.063.125-.12.25-.172.373a.267.267,0,0,0-.014.03c-.057.134-.107.267-.153.4v0a5.151,5.151,0,0,0-.271,1.65h0C3730,6839.782,3730.006,6839.858,3730.01,6839.933Z" transform="translate(-3729.99 -6689.877)" fill="#fff"/>
    <path id="Path_77" data-name="Path 77" d="M3764.551,6524.4l46.93,26.92,81.4-46.934-46.931-26.921-19.689,11.353a44.347,44.347,0,0,0,.144-5.513,50.609,50.609,0,0,0-.5-5.5c-1.519-10.4-6-17.838-9.957-24.4-5.854-9.712-10.186-16.9-3.639-30.563,12.674,6.758,29.541,8.123,46.013,2.4,18.652-6.477,32.037-20.384,36.467-35.676-13.006-9.236-32.167-11.842-50.82-5.365-16.279,5.653-28.547,16.966-34.348,29.922-3.054-8.217-9.928-15.762-19.5-20.247-11.453-5.368-23.839-4.982-32.744.04,1.8,10.041,9.4,19.793,20.85,25.162a38.136,38.136,0,0,0,26.183,2.649c-2.786,6.552-3.635,12.452-2.667,18.241,1.088,6.5,4.27,11.781,7.637,17.365,3.759,6.233,7.644,12.679,8.942,21.563a39.806,39.806,0,0,1,.348,8.878,30.559,30.559,0,0,1-1.073,6.028Z" transform="translate(-3751.166 -6380.625)" fill="#412e88"/>
  </g>
</svg>
